{
    "asset" : {
        "generator" : "Khronos glTF Blender I/O v1.5.17",
        "version" : "2.0"
    },
    "scene" : 0,
    "scenes" : [
        {
            "name" : "Scene",
            "nodes" : [
                26
            ]
        }
    ],
    "nodes" : [
        {
            "name" : "wrist",
            "rotation" : [
                -0.7071068286895752,
                5.760118781950041e-08,
                5.760119137221409e-08,
                0.7071068286895752
            ],
            "scale" : [
                1,
                0.9999999403953552,
                1
            ],
            "translation" : [
                1.8626447606528984e-10,
                -8.940696516468449e-10,
                5.96046212386625e-10
            ]
        },
        {
            "name" : "thumb-metacarpal",
            "rotation" : [
                -0.4763745069503784,
                0.7100346684455872,
                0.18028733134269714,
                0.48622485995292664
            ],
            "scale" : [
                1.000000238418579,
                1,
                1
            ],
            "translation" : [
                -0.028028501197695732,
                -0.0359584279358387,
                0.019157717004418373
            ]
        },
        {
            "name" : "thumb-phalanx-proximal",
            "rotation" : [
                -0.47673991322517395,
                0.6406403183937073,
                0.11477915197610855,
                0.5908678770065308
            ],
            "scale" : [
                0.9999998807907104,
                1,
                1
            ],
            "translation" : [
                -0.044955722987651825,
                -0.05921865254640579,
                0.03430764749646187
            ]
        },
        {
            "name" : "thumb-phalanx-distal",
            "rotation" : [
                -0.39142173528671265,
                0.7194157242774963,
                0.09644205868244171,
                0.5656226277351379
            ],
            "scale" : [
                1,
                0.9999999403953552,
                1
            ],
            "translation" : [
                -0.06691253185272217,
                -0.08312328159809113,
                0.0437118336558342
            ]
        },
        {
            "name" : "thumb-tip",
            "rotation" : [
                -0.3947904706001282,
                0.7221444249153137,
                0.09097205102443695,
                0.5606889724731445
            ],
            "scale" : [
                0.9999999403953552,
                0.9999998807907104,
                0.9999998807907104
            ],
            "translation" : [
                -0.07789862900972366,
                -0.09167803823947906,
                0.04891208931803703
            ]
        },
        {
            "name" : "index-finger-metacarpal",
            "rotation" : [
                -0.77494215965271,
                0.05332411825656891,
                -0.03195803984999657,
                0.6289674043655396
            ],
            "scale" : [
                0.9999995827674866,
                1.000000238418579,
                0.9999997019767761
            ],
            "translation" : [
                -0.015884488821029663,
                -0.029212743043899536,
                0.009419834241271019
            ]
        },
        {
            "name" : "index-finger-phalanx-proximal",
            "rotation" : [
                -0.7392873764038086,
                0.01683184690773487,
                0.028036130592226982,
                0.6725956797599792
            ],
            "scale" : [
                1,
                1.0000001192092896,
                1.000000238418579
            ],
            "translation" : [
                -0.023550676181912422,
                -0.08854873478412628,
                0.007316457573324442
            ]
        },
        {
            "name" : "index-finger-phalanx-intermediate",
            "rotation" : [
                -0.7388502955436707,
                -0.01528934109956026,
                0.020967017859220505,
                0.673369824886322
            ],
            "scale" : [
                0.9999994039535522,
                0.9999993443489075,
                1.0000001192092896
            ],
            "translation" : [
                -0.022021925076842308,
                -0.13375452160835266,
                0.01055047009140253
            ]
        },
        {
            "name" : "index-finger-phalanx-distal",
            "rotation" : [
                -0.686407744884491,
                -0.04156109690666199,
                0.031442154198884964,
                0.7253471612930298
            ],
            "scale" : [
                0.9999995231628418,
                0.9999998211860657,
                0.9999997615814209
            ],
            "translation" : [
                -0.02069162018597126,
                -0.15792004764080048,
                0.01276903785765171
            ]
        },
        {
            "name" : "index-finger-tip",
            "rotation" : [
                -0.6862807869911194,
                -0.049977876245975494,
                0.03852125257253647,
                0.7245944738388062
            ],
            "scale" : [
                1.0000001192092896,
                1,
                0.9999998807907104
            ],
            "translation" : [
                -0.019425027072429657,
                -0.16941747069358826,
                0.012159150093793869
            ]
        },
        {
            "name" : "middle-finger-metacarpal",
            "rotation" : [
                -0.7821785807609558,
                -0.023043932393193245,
                -0.06304748356342316,
                0.6194276809692383
            ],
            "scale" : [
                1,
                0.9999996423721313,
                1.0000001192092896
            ],
            "translation" : [
                -0.0032591435592621565,
                -0.029106352478265762,
                0.009419835172593594
            ]
        },
        {
            "name" : "middle-finger-phalanx-proximal",
            "rotation" : [
                -0.7427287697792053,
                -0.04151846468448639,
                0.028317611664533615,
                0.6677038669586182
            ],
            "scale" : [
                0.9999993443489075,
                1.0000001192092896,
                1.0000004768371582
            ],
            "translation" : [
                -0.001725903362967074,
                -0.09164661914110184,
                0.002543156733736396
            ]
        },
        {
            "name" : "middle-finger-phalanx-intermediate",
            "rotation" : [
                -0.7380437850952148,
                -0.06258413195610046,
                0.036574337631464005,
                0.6708479523658752
            ],
            "scale" : [
                1,
                1.0000004768371582,
                1
            ],
            "translation" : [
                0.002640301128849387,
                -0.13811546564102173,
                0.007021433673799038
            ]
        },
        {
            "name" : "middle-finger-phalanx-distal",
            "rotation" : [
                -0.6704923510551453,
                -0.0809938833117485,
                0.01419301237910986,
                0.7373456954956055
            ],
            "scale" : [
                1.0000004768371582,
                0.9999995827674866,
                0.9999998211860657
            ],
            "translation" : [
                0.005685935262590647,
                -0.1653556078672409,
                0.009792773053050041
            ]
        },
        {
            "name" : "middle-finger-tip",
            "rotation" : [
                -0.6713148355484009,
                -0.07821036130189896,
                0.008088618516921997,
                0.7369899153709412
            ],
            "scale" : [
                0.9999994039535522,
                1.0000001192092896,
                0.9999997615814209
            ],
            "translation" : [
                0.007302379701286554,
                -0.17740768194198608,
                0.008763404563069344
            ]
        },
        {
            "name" : "ring-finger-metacarpal",
            "rotation" : [
                -0.779512882232666,
                -0.12313608825206757,
                -0.04890383780002594,
                0.6122137308120728
            ],
            "scale" : [
                1,
                0.9999996423721313,
                1.0000004768371582
            ],
            "translation" : [
                0.008265813812613487,
                -0.026990527287125587,
                0.009419836103916168
            ]
        },
        {
            "name" : "ring-finger-phalanx-proximal",
            "rotation" : [
                -0.7372061014175415,
                -0.11990050226449966,
                0.046976324170827866,
                0.6632829904556274
            ],
            "scale" : [
                0.9999995827674866,
                1.000000238418579,
                1.000000238418579
            ],
            "translation" : [
                0.017465244978666306,
                -0.0846937820315361,
                0.006529302801936865
            ]
        },
        {
            "name" : "ring-finger-phalanx-intermediate",
            "rotation" : [
                -0.7334646582603455,
                -0.1584361046552658,
                0.03868652135133743,
                0.6598719954490662
            ],
            "scale" : [
                0.9999995231628418,
                1.000000238418579,
                0.9999998211860657
            ],
            "translation" : [
                0.02676110528409481,
                -0.1263144463300705,
                0.010884810239076614
            ]
        },
        {
            "name" : "ring-finger-phalanx-distal",
            "rotation" : [
                -0.7179667949676514,
                -0.13197831809520721,
                0.006449223030358553,
                0.683420717716217
            ],
            "scale" : [
                1.000000238418579,
                0.999999463558197,
                1.0000001192092896
            ],
            "translation" : [
                0.03319219499826431,
                -0.15188787877559662,
                0.01416861079633236
            ]
        },
        {
            "name" : "ring-finger-tip",
            "rotation" : [
                -0.7187318205833435,
                -0.13417485356330872,
                0.003463511122390628,
                0.6822094321250916
            ],
            "scale" : [
                0.9999995827674866,
                1.0000005960464478,
                1.0000001192092896
            ],
            "translation" : [
                0.03552267327904701,
                -0.16357211768627167,
                0.014942227862775326
            ]
        },
        {
            "name" : "pinky-finger-metacarpal",
            "rotation" : [
                -0.6950896382331848,
                -0.24571159482002258,
                -0.052773747593164444,
                0.6735659837722778
            ],
            "scale" : [
                0.9999999403953552,
                1,
                1.0000007152557373
            ],
            "translation" : [
                0.022998575121164322,
                -0.034073565155267715,
                0.009419831447303295
            ]
        },
        {
            "name" : "pinky-finger-phalanx-proximal",
            "rotation" : [
                -0.7371914982795715,
                -0.16642968356609344,
                -0.004589088726788759,
                0.6548503041267395
            ],
            "scale" : [
                0.9999995231628418,
                0.9999998807907104,
                1
            ],
            "translation" : [
                0.03505408763885498,
                -0.07389584183692932,
                0.013691178523004055
            ]
        },
        {
            "name" : "pinky-finger-phalanx-intermediate",
            "rotation" : [
                -0.7181382179260254,
                -0.22876721620559692,
                0.011543449014425278,
                0.6571223735809326
            ],
            "scale" : [
                1.000000238418579,
                1.0000003576278687,
                0.9999995827674866
            ],
            "translation" : [
                0.042367469519376755,
                -0.10740291327238083,
                0.01811724156141281
            ]
        },
        {
            "name" : "pinky-finger-phalanx-distal",
            "rotation" : [
                -0.7028482556343079,
                -0.1945386528968811,
                -0.017829783260822296,
                0.6839891672134399
            ],
            "scale" : [
                0.9999997019767761,
                0.9999993443489075,
                1.000000238418579
            ],
            "translation" : [
                0.04895488917827606,
                -0.12640321254730225,
                0.0209718719124794
            ]
        },
        {
            "name" : "pinky-finger-tip",
            "rotation" : [
                -0.7031674981117249,
                -0.2156880795955658,
                0.0012595904991030693,
                0.6775193810462952
            ],
            "scale" : [
                0.9999996423721313,
                1.0000005960464478,
                1.0000001192092896
            ],
            "translation" : [
                0.05193105340003967,
                -0.13790695369243622,
                0.02176165021955967
            ]
        },
        {
            "mesh" : 0,
            "name" : "r_handMeshNode",
            "skin" : 0
        },
        {
            "children" : [
                25,
                0,
                1,
                2,
                3,
                4,
                5,
                6,
                7,
                8,
                9,
                10,
                11,
                12,
                13,
                14,
                15,
                16,
                17,
                18,
                19,
                20,
                21,
                22,
                23,
                24
            ],
            "name" : "Armature"
        }
    ],
    "materials" : [
        {
            "name" : "lambert2",
            "pbrMetallicRoughness" : {
                "baseColorTexture" : {
                    "index" : 0
                },
                "metallicFactor" : 0,
                "roughnessFactor" : 0.5527864098548889
            }
        }
    ],
    "meshes" : [
        {
            "name" : "Mesh.001",
            "primitives" : [
                {
                    "attributes" : {
                        "POSITION" : 0,
                        "NORMAL" : 1,
                        "TEXCOORD_0" : 2,
                        "JOINTS_0" : 3,
                        "WEIGHTS_0" : 4
                    },
                    "indices" : 5,
                    "material" : 0
                }
            ]
        }
    ],
    "textures" : [
        {
            "sampler" : 0,
            "source" : 0
        }
    ],
    "images" : [
        {
            "bufferView" : 6,
            "mimeType" : "image/jpeg",
            "name" : "leather"
        }
    ],
    "skins" : [
        {
            "inverseBindMatrices" : 6,
            "joints" : [
                0,
                1,
                2,
                3,
                4,
                5,
                6,
                7,
                8,
                9,
                10,
                11,
                12,
                13,
                14,
                15,
                16,
                17,
                18,
                19,
                20,
                21,
                22,
                23,
                24
            ],
            "name" : "Armature"
        }
    ],
    "accessors" : [
        {
            "bufferView" : 0,
            "componentType" : 5126,
            "count" : 2720,
            "max" : [
                0.06030450016260147,
                0.024344265460968018,
                0.059846051037311554
            ],
            "min" : [
                -0.08956104516983032,
                -0.19152937829494476,
                -0.02132321335375309
            ],
            "type" : "VEC3"
        },
        {
            "bufferView" : 1,
            "componentType" : 5126,
            "count" : 2720,
            "type" : "VEC3"
        },
        {
            "bufferView" : 2,
            "componentType" : 5126,
            "count" : 2720,
            "type" : "VEC2"
        },
        {
            "bufferView" : 3,
            "componentType" : 5121,
            "count" : 2720,
            "type" : "VEC4"
        },
        {
            "bufferView" : 4,
            "componentType" : 5126,
            "count" : 2720,
            "type" : "VEC4"
        },
        {
            "bufferView" : 5,
            "componentType" : 5123,
            "count" : 16284,
            "type" : "SCALAR"
        },
        {
            "bufferView" : 7,
            "componentType" : 5126,
            "count" : 25,
            "type" : "MAT4"
        }
    ],
    "bufferViews" : [
        {
            "buffer" : 0,
            "byteLength" : 32640,
            "byteOffset" : 0
        },
        {
            "buffer" : 0,
            "byteLength" : 32640,
            "byteOffset" : 32640
        },
        {
            "buffer" : 0,
            "byteLength" : 21760,
            "byteOffset" : 65280
        },
        {
            "buffer" : 0,
            "byteLength" : 10880,
            "byteOffset" : 87040
        },
        {
            "buffer" : 0,
            "byteLength" : 43520,
            "byteOffset" : 97920
        },
        {
            "buffer" : 0,
            "byteLength" : 32568,
            "byteOffset" : 141440
        },
        {
            "buffer" : 0,
            "byteLength" : 136998,
            "byteOffset" : 174008
        },
        {
            "buffer" : 0,
            "byteLength" : 1600,
            "byteOffset" : 311008
        }
    ],
    "samplers" : [
        {
            "magFilter" : 9729,
            "minFilter" : 9987
        }
    ],
    "buffers" : [
        {
            "byteLength" : 312608,
            "uri" : "data:application/octet-stream;base64,"
        }
    ]
}
