{
    "asset" : {
        "generator" : "Khronos glTF Blender I/O v1.5.17",
        "version" : "2.0"
    },
    "scene" : 0,
    "scenes" : [
        {
            "name" : "Scene",
            "nodes" : [
                3
            ]
        }
    ],
    "nodes" : [
        {
            "mesh" : 0,
            "name" : "character_duckArmLeft",
            "translation" : [
                0.20404481887817383,
                0,
                -0.6335563659667969
            ]
        },
        {
            "mesh" : 1,
            "name" : "character_duckArmRight",
            "translation" : [
                -0.20404601097106934,
                0,
                -0.6335563063621521
            ]
        },
        {
            "mesh" : 2,
            "name" : "character_duckHead",
            "translation" : [
                0,
                0,
                -0.7037110328674316
            ]
        },
        {
            "children" : [
                0,
                1,
                2
            ],
            "mesh" : 3,
            "name" : "character_duck",
            "rotation" : [
                0.7071068286895752,
                0,
                0,
                0.7071067094802856
            ]
        }
    ],
    "materials" : [
        {
            "doubleSided" : true,
            "name" : "White.026",
            "pbrMetallicRoughness" : {
                "baseColorFactor" : [
                    0.799102783203125,
                    0.799102783203125,
                    0.799102783203125,
                    1
                ],
                "metallicFactor" : 0,
                "roughnessFactor" : 0.5
            }
        },
        {
            "doubleSided" : true,
            "name" : "Yellow.043",
            "pbrMetallicRoughness" : {
                "baseColorFactor" : [
                    1,
                    0.5052202939987183,
                    0.017695415765047073,
                    1
                ],
                "metallicFactor" : 0,
                "roughnessFactor" : 0.20000000298023224
            }
        },
        {
            "doubleSided" : true,
            "name" : "Black.027",
            "pbrMetallicRoughness" : {
                "baseColorFactor" : [
                    0.019794002175331116,
                    0.03207586705684662,
                    0.037408243864774704,
                    1
                ],
                "metallicFactor" : 0,
                "roughnessFactor" : 0.5
            }
        }
    ],
    "meshes" : [
        {
            "name" : "Cube.5105",
            "primitives" : [
                {
                    "attributes" : {
                        "POSITION" : 0,
                        "NORMAL" : 1,
                        "TEXCOORD_0" : 2
                    },
                    "indices" : 3,
                    "material" : 0
                }
            ]
        },
        {
            "name" : "Cube.5104",
            "primitives" : [
                {
                    "attributes" : {
                        "POSITION" : 4,
                        "NORMAL" : 5,
                        "TEXCOORD_0" : 6
                    },
                    "indices" : 7,
                    "material" : 0
                }
            ]
        },
        {
            "name" : "Cube.1338",
            "primitives" : [
                {
                    "attributes" : {
                        "POSITION" : 8,
                        "NORMAL" : 9,
                        "TEXCOORD_0" : 10
                    },
                    "indices" : 11,
                    "material" : 0
                },
                {
                    "attributes" : {
                        "POSITION" : 12,
                        "NORMAL" : 13,
                        "TEXCOORD_0" : 14
                    },
                    "indices" : 15,
                    "material" : 1
                },
                {
                    "attributes" : {
                        "POSITION" : 16,
                        "NORMAL" : 17,
                        "TEXCOORD_0" : 18
                    },
                    "indices" : 19,
                    "material" : 2
                }
            ]
        },
        {
            "name" : "Cube.5103",
            "primitives" : [
                {
                    "attributes" : {
                        "POSITION" : 20,
                        "NORMAL" : 21,
                        "TEXCOORD_0" : 22
                    },
                    "indices" : 23,
                    "material" : 0
                }
            ]
        }
    ],
    "accessors" : [
        {
            "bufferView" : 0,
            "componentType" : 5126,
            "count" : 206,
            "max" : [
                0.26490139961242676,
                0.09058669954538345,
                0.47665560245513916
            ],
            "min" : [
                -0.11533478647470474,
                -0.09058652073144913,
                -0.09418356418609619
            ],
            "type" : "VEC3"
        },
        {
            "bufferView" : 1,
            "componentType" : 5126,
            "count" : 206,
            "type" : "VEC3"
        },
        {
            "bufferView" : 2,
            "componentType" : 5126,
            "count" : 206,
            "type" : "VEC2"
        },
        {
            "bufferView" : 3,
            "componentType" : 5123,
            "count" : 978,
            "type" : "SCALAR"
        },
        {
            "bufferView" : 4,
            "componentType" : 5126,
            "count" : 226,
            "max" : [
                0.11533510684967041,
                0.09058669209480286,
                0.4766555428504944
            ],
            "min" : [
                -0.26490116119384766,
                -0.09058653563261032,
                -0.09418362379074097
            ],
            "type" : "VEC3"
        },
        {
            "bufferView" : 5,
            "componentType" : 5126,
            "count" : 226,
            "type" : "VEC3"
        },
        {
            "bufferView" : 6,
            "componentType" : 5126,
            "count" : 226,
            "type" : "VEC2"
        },
        {
            "bufferView" : 7,
            "componentType" : 5123,
            "count" : 978,
            "type" : "SCALAR"
        },
        {
            "bufferView" : 8,
            "componentType" : 5126,
            "count" : 709,
            "max" : [
                0.49999964237213135,
                0.49999964237213135,
                0
            ],
            "min" : [
                -0.4999997615814209,
                -0.49999967217445374,
                -1.1882190704345703
            ],
            "type" : "VEC3"
        },
        {
            "bufferView" : 9,
            "componentType" : 5126,
            "count" : 709,
            "type" : "VEC3"
        },
        {
            "bufferView" : 10,
            "componentType" : 5126,
            "count" : 709,
            "type" : "VEC2"
        },
        {
            "bufferView" : 11,
            "componentType" : 5123,
            "count" : 2988,
            "type" : "SCALAR"
        },
        {
            "bufferView" : 12,
            "componentType" : 5126,
            "count" : 230,
            "max" : [
                0.2863595485687256,
                0.6549735069274902,
                -0.17995133996009827
            ],
            "min" : [
                -0.2863594889640808,
                0.32956016063690186,
                -0.4807015061378479
            ],
            "type" : "VEC3"
        },
        {
            "bufferView" : 13,
            "componentType" : 5126,
            "count" : 230,
            "type" : "VEC3"
        },
        {
            "bufferView" : 14,
            "componentType" : 5126,
            "count" : 230,
            "type" : "VEC2"
        },
        {
            "bufferView" : 15,
            "componentType" : 5123,
            "count" : 936,
            "type" : "SCALAR"
        },
        {
            "bufferView" : 16,
            "componentType" : 5126,
            "count" : 108,
            "max" : [
                0.33058083057403564,
                0.4680277407169342,
                -0.3558252453804016
            ],
            "min" : [
                -0.33058077096939087,
                0.3631858229637146,
                -0.4932207465171814
            ],
            "type" : "VEC3"
        },
        {
            "bufferView" : 17,
            "componentType" : 5126,
            "count" : 108,
            "type" : "VEC3"
        },
        {
            "bufferView" : 18,
            "componentType" : 5126,
            "count" : 108,
            "type" : "VEC2"
        },
        {
            "bufferView" : 19,
            "componentType" : 5123,
            "count" : 396,
            "type" : "SCALAR"
        },
        {
            "bufferView" : 20,
            "componentType" : 5126,
            "count" : 435,
            "max" : [
                0.33807387948036194,
                0.34999972581863403,
                6.267252672387258e-08
            ],
            "min" : [
                -0.33807387948036194,
                -0.4208284616470337,
                -0.7255613207817078
            ],
            "type" : "VEC3"
        },
        {
            "bufferView" : 21,
            "componentType" : 5126,
            "count" : 435,
            "type" : "VEC3"
        },
        {
            "bufferView" : 22,
            "componentType" : 5126,
            "count" : 435,
            "type" : "VEC2"
        },
        {
            "bufferView" : 23,
            "componentType" : 5123,
            "count" : 1740,
            "type" : "SCALAR"
        }
    ],
    "bufferViews" : [
        {
            "buffer" : 0,
            "byteLength" : 2472,
            "byteOffset" : 0
        },
        {
            "buffer" : 0,
            "byteLength" : 2472,
            "byteOffset" : 2472
        },
        {
            "buffer" : 0,
            "byteLength" : 1648,
            "byteOffset" : 4944
        },
        {
            "buffer" : 0,
            "byteLength" : 1956,
            "byteOffset" : 6592
        },
        {
            "buffer" : 0,
            "byteLength" : 2712,
            "byteOffset" : 8548
        },
        {
            "buffer" : 0,
            "byteLength" : 2712,
            "byteOffset" : 11260
        },
        {
            "buffer" : 0,
            "byteLength" : 1808,
            "byteOffset" : 13972
        },
        {
            "buffer" : 0,
            "byteLength" : 1956,
            "byteOffset" : 15780
        },
        {
            "buffer" : 0,
            "byteLength" : 8508,
            "byteOffset" : 17736
        },
        {
            "buffer" : 0,
            "byteLength" : 8508,
            "byteOffset" : 26244
        },
        {
            "buffer" : 0,
            "byteLength" : 5672,
            "byteOffset" : 34752
        },
        {
            "buffer" : 0,
            "byteLength" : 5976,
            "byteOffset" : 40424
        },
        {
            "buffer" : 0,
            "byteLength" : 2760,
            "byteOffset" : 46400
        },
        {
            "buffer" : 0,
            "byteLength" : 2760,
            "byteOffset" : 49160
        },
        {
            "buffer" : 0,
            "byteLength" : 1840,
            "byteOffset" : 51920
        },
        {
            "buffer" : 0,
            "byteLength" : 1872,
            "byteOffset" : 53760
        },
        {
            "buffer" : 0,
            "byteLength" : 1296,
            "byteOffset" : 55632
        },
        {
            "buffer" : 0,
            "byteLength" : 1296,
            "byteOffset" : 56928
        },
        {
            "buffer" : 0,
            "byteLength" : 864,
            "byteOffset" : 58224
        },
        {
            "buffer" : 0,
            "byteLength" : 792,
            "byteOffset" : 59088
        },
        {
            "buffer" : 0,
            "byteLength" : 5220,
            "byteOffset" : 59880
        },
        {
            "buffer" : 0,
            "byteLength" : 5220,
            "byteOffset" : 65100
        },
        {
            "buffer" : 0,
            "byteLength" : 3480,
            "byteOffset" : 70320
        },
        {
            "buffer" : 0,
            "byteLength" : 3480,
            "byteOffset" : 73800
        }
    ],
    "buffers" : [
        {
            "byteLength" : 77280,
            "uri" : "data:application/octet-stream;base64,"
        }
    ]
}
